<svg width="28" height="28" viewBox="0 0 28 28" fill="none" xmlns="http://www.w3.org/2000/svg">
<path fill-rule="evenodd" clip-rule="evenodd" d="M27.9811 13.7926C27.9811 21.409 21.7173 27.5833 13.9906 27.5833C6.26378 27.5833 0 21.409 0 13.7926C0 6.17626 6.26378 0.00195312 13.9906 0.00195312C21.7173 0.00195312 27.9811 6.17626 27.9811 13.7926ZM26.7426 13.6874C26.7426 20.6945 20.9799 26.3749 13.8713 26.3749C6.76268 26.3749 1 20.6945 1 13.6874C1 6.68036 6.76268 1 13.8713 1C20.9799 1 26.7426 6.68036 26.7426 13.6874ZM11.7521 11.0345V11.5861H12.8713V20.4122H11.7521V20.9638H12.8713H15.1098H16.229V20.4122H15.1098V11.0345H12.8713H11.7521ZM15.6694 8.27637C15.6694 9.19033 14.9178 9.93125 13.9906 9.93125C13.0633 9.93125 12.3117 9.19033 12.3117 8.27637C12.3117 7.3624 13.0633 6.62148 13.9906 6.62148C14.9178 6.62148 15.6694 7.3624 15.6694 8.27637Z" fill="white"/>
</svg>
