<?xml version="1.0" encoding="UTF-8"?>
<svg xmlns="http://www.w3.org/2000/svg" xmlns:xlink="http://www.w3.org/1999/xlink" width="30px" height="24px" viewBox="0 0 30 24" version="1.1">
<g id="surface1">
<path style=" stroke:none;fill-rule:nonzero;fill:#FFF;fill-opacity:1;" d="M 18.097656 10.710938 C 18.183594 11.164062 18.242188 11.621094 18.242188 12.207031 C 18.242188 17.351562 14.792969 21 9.601562 21 C 4.628906 21 0.601562 16.972656 0.601562 12 C 0.601562 7.027344 4.628906 3 9.601562 3 C 12.03125 3 14.058594 3.882812 15.628906 5.359375 L 13.183594 7.703125 C 12.523438 7.0625 11.355469 6.316406 9.601562 6.316406 C 6.53125 6.316406 4.027344 8.855469 4.027344 12 C 4.027344 15.144531 6.53125 17.683594 9.601562 17.683594 C 13.160156 17.683594 14.5 15.117188 14.707031 13.804688 L 9.601562 13.804688 L 9.601562 10.710938 Z M 26.789062 11.011719 L 26.789062 8.398438 L 24.164062 8.398438 L 24.164062 11.011719 L 21.550781 11.011719 L 21.550781 13.636719 L 24.164062 13.636719 L 24.164062 16.25 L 26.789062 16.25 L 26.789062 13.636719 L 29.398438 13.636719 L 29.398438 11.011719 Z M 26.789062 11.011719 "/>
</g>
</svg>
