<?xml version="1.0" encoding="UTF-8"?>
<svg xmlns="http://www.w3.org/2000/svg" xmlns:xlink="http://www.w3.org/1999/xlink" width="32px" height="37px" viewBox="0 0 32 36" version="1.1">
<g id="surface1">
<path style=" stroke:none;fill-rule:nonzero;fill:#2B4074;fill-opacity:1;" d="M 32 20.8125 C 32 25.472656 28.164062 29.25 23.429688 29.25 L 22.855469 29.25 C 21.59375 29.25 20.570312 28.246094 20.570312 27 C 20.570312 25.753906 21.59375 24.75 22.855469 24.75 L 23.429688 24.75 C 25.636719 24.75 27.429688 22.984375 27.429688 20.8125 L 27.429688 20.25 L 22.855469 20.25 C 20.335938 20.25 18.285156 18.230469 18.285156 15.75 L 18.285156 11.25 C 18.285156 8.769531 20.335938 6.75 22.855469 6.75 L 27.429688 6.75 C 29.949219 6.75 32 8.769531 32 11.25 Z M 13.714844 20.8125 C 13.714844 25.472656 9.878906 29.25 5.144531 29.25 L 4.570312 29.25 C 3.308594 29.25 2.285156 28.246094 2.285156 27 C 2.285156 25.753906 3.308594 24.75 4.570312 24.75 L 5.144531 24.75 C 7.351562 24.75 9.144531 22.984375 9.144531 20.8125 L 9.144531 20.25 L 4.570312 20.25 C 2.050781 20.25 0 18.230469 0 15.75 L 0 11.25 C 0 8.769531 2.050781 6.75 4.570312 6.75 L 9.144531 6.75 C 11.664062 6.75 13.714844 8.769531 13.714844 11.25 Z M 13.714844 20.8125 "/>
</g>
</svg>
